<svg width="94" height="62" viewBox="0 0 94 62" fill="none" xmlns="http://www.w3.org/2000/svg">
<path d="M36.177 23.236C36.1003 22.454 35.8167 21.8713 35.326 21.488C34.8353 21.1047 34.107 20.913 33.141 20.913C32.2363 20.913 31.554 21.0663 31.094 21.373C30.634 21.6797 30.404 22.1243 30.404 22.707C30.404 23.1977 30.5803 23.5887 30.933 23.88C31.301 24.1713 31.9143 24.4243 32.773 24.639C33.647 24.8537 34.475 25.0683 35.257 25.283C36.0543 25.4823 36.7367 25.7123 37.304 25.973C37.6413 26.1263 37.9557 26.3027 38.247 26.502C38.5383 26.7013 38.7913 26.9467 39.006 27.238C39.2207 27.5293 39.3893 27.8743 39.512 28.273C39.6347 28.6717 39.696 29.1393 39.696 29.676C39.696 30.5193 39.5427 31.2477 39.236 31.861C38.9447 32.459 38.523 32.9573 37.971 33.356C37.4343 33.7547 36.7903 34.046 36.039 34.23C35.303 34.4293 34.4903 34.529 33.601 34.529C32.6503 34.529 31.784 34.4217 31.002 34.207C30.22 34.0077 29.5453 33.6933 28.978 33.264C28.4107 32.8347 27.966 32.3057 27.644 31.677C27.322 31.033 27.1533 30.2817 27.138 29.423H30.22C30.2507 30.205 30.565 30.826 31.163 31.286C31.7763 31.7307 32.5967 31.953 33.624 31.953C34.5747 31.953 35.303 31.769 35.809 31.401C36.3303 31.0177 36.591 30.481 36.591 29.791C36.591 29.561 36.5527 29.354 36.476 29.17C36.4147 28.986 36.292 28.8173 36.108 28.664C35.9393 28.4953 35.7017 28.3497 35.395 28.227C35.0883 28.089 34.6973 27.9663 34.222 27.859C33.2713 27.6443 32.4663 27.4603 31.807 27.307C31.163 27.1383 30.5727 26.9313 30.036 26.686C29.208 26.318 28.5717 25.8427 28.127 25.26C27.6977 24.662 27.483 23.88 27.483 22.914C27.483 22.224 27.598 21.5953 27.828 21.028C28.058 20.4453 28.403 19.947 28.863 19.533C29.3383 19.119 29.921 18.797 30.611 18.567C31.3163 18.337 32.1367 18.222 33.072 18.222C34.038 18.222 34.8967 18.3447 35.648 18.59C36.3993 18.8353 37.028 19.1803 37.534 19.625C38.0553 20.0697 38.454 20.5987 38.73 21.212C39.0213 21.8253 39.1823 22.5 39.213 23.236H36.177Z" fill="black"/>
<circle cx="33.5" cy="26.5" r="19.5" stroke="black" stroke-width="2"/>
</svg>
